P1
# une ligne image = une ligne du fichier
7 9
0000000
0011100
0100010
0000010
0000100
0001000
0010000
0111110
0000000