P1
# cree par ecrire_fichier_image
25 25
0000000000000000000000000
0011111111110111111111100
0100000000010100000000010
0100110110010100110110010
0101010101010101010101010
0101110111010101110111010
0100000000010100000000010
0101110111010101110111010
0101010101010101010101010
0100110110010100110110010
0100000000010100000000010
0111111111110111111111110
0000000000000000000000000
0111111111110111111111110
0100000000010100000000010
0100110110010100110110010
0101010101010101010101010
0101110111010101110111010
0100000000010100000000010
0101110111010101110111010
0101010101010101010101010
0100110110010100110110010
0100000000010100000000010
0011111111110111111111100
0000000000000000000000000
