P1
# cree par ecrire_fichier_image
9 9
000000000
001101100
010101010
011101110
000000000
011101110
010101010
001101100
000000000
