P1
# cree par ecrire_fichier_image
57 57
000000000000000000000000000000000000000000000000000000000
001111111111111111111111111101111111111111111111111111100
010000000000000000000000000101000000000000000000000000010
010011111111110111111111100101001111111111011111111110010
010100000000010100000000010101010000000001010000000001010
010100110110010100110110010101010011011001010011011001010
010101010101010101010101010101010101010101010101010101010
010101110111010101110111010101010111011101010111011101010
010100000000010100000000010101010000000001010000000001010
010101110111010101110111010101010111011101010111011101010
010101010101010101010101010101010101010101010101010101010
010100110110010100110110010101010011011001010011011001010
010100000000010100000000010101010000000001010000000001010
010111111111110111111111110101011111111111011111111111010
010000000000000000000000000101000000000000000000000000010
010111111111110111111111110101011111111111011111111111010
010100000000010100000000010101010000000001010000000001010
010100110110010100110110010101010011011001010011011001010
010101010101010101010101010101010101010101010101010101010
010101110111010101110111010101010111011101010111011101010
010100000000010100000000010101010000000001010000000001010
010101110111010101110111010101010111011101010111011101010
010101010101010101010101010101010101010101010101010101010
010100110110010100110110010101010011011001010011011001010
010100000000010100000000010101010000000001010000000001010
010011111111110111111111100101001111111111011111111110010
010000000000000000000000000101000000000000000000000000010
011111111111111111111111111101111111111111111111111111110
000000000000000000000000000000000000000000000000000000000
011111111111111111111111111101111111111111111111111111110
010000000000000000000000000101000000000000000000000000010
010011111111110111111111100101001111111111011111111110010
010100000000010100000000010101010000000001010000000001010
010100110110010100110110010101010011011001010011011001010
010101010101010101010101010101010101010101010101010101010
010101110111010101110111010101010111011101010111011101010
010100000000010100000000010101010000000001010000000001010
010101110111010101110111010101010111011101010111011101010
010101010101010101010101010101010101010101010101010101010
010100110110010100110110010101010011011001010011011001010
010100000000010100000000010101010000000001010000000001010
010111111111110111111111110101011111111111011111111111010
010000000000000000000000000101000000000000000000000000010
010111111111110111111111110101011111111111011111111111010
010100000000010100000000010101010000000001010000000001010
010100110110010100110110010101010011011001010011011001010
010101010101010101010101010101010101010101010101010101010
010101110111010101110111010101010111011101010111011101010
010100000000010100000000010101010000000001010000000001010
010101110111010101110111010101010111011101010111011101010
010101010101010101010101010101010101010101010101010101010
010100110110010100110110010101010011011001010011011001010
010100000000010100000000010101010000000001010000000001010
010011111111110111111111100101001111111111011111111110010
010000000000000000000000000101000000000000000000000000010
001111111111111111111111111101111111111111111111111111100
000000000000000000000000000000000000000000000000000000000
