P1
# cree par ecrire_fichier_image
33 33
000000000000000000000000000000000
011111111111111111111111111111110
010000000000000000000000000000010
010011111111111111111111111111010
010100000000000000000000000001010
010101111111111111111111111001010
010101000000000000000000000101010
010101011111111111111111110101010
010101010000000000000000010101010
010101010111111111111111010101010
010101010100000000000001010101010
010101010100111111111101010101010
010101010101000000000101010101010
010101010101011111100101010101010
010101010101010000010101010101010
010101010101010111010101010101010
010101010101010101010101010101010
010101010101010110010101010101010
010101010101010000010101010101010
010101010101011111110101010101010
010101010101000000000101010101010
010101010101111111111101010101010
010101010100000000000001010101010
010101010011111111111111010101010
010101010000000000000000010101010
010101011111111111111111100101010
010101000000000000000000000101010
010101111111111111111111111101010
010100000000000000000000000001010
010111111111111111111111111111010
010000000000000000000000000000010
001111111111111111111111111111110
000000000000000000000000000000000
