P1
# cree par la procedure ecrire_image
4 5
0101
1010
0101
1010
0101
