P1
#
7 9
1111111
1000001
1011001
1011010
1000100
1001000
1010000
1100000
1000000