P1
# CREATOR: GIMP PNM Filter Version 1.1
100 100
0000000000000000000000000000000000000000000111111111111110000000000000
0000000000000000000000000000000000000000000000000000000000000000000011
1111111111111111111111000000000000000000000000000000000000000000000000
0000000000000000000000001111111111111111111111111111111100000000000000
0000000000000000000000000000000000000000000000000000111111111111111111
1111111111111111110000000000000000000000000000000000000000000000000000
0000000001111111111111111111111111111111111111111110000000000000000000
0000000000000000000000000000000000000111111111111111111111111111111111
1111111111111000000000000000000000000000000000000000000000000000011111
1111111111111111111111111111111111111111111110000000000000000000000000
0000000000000000000000001111111111111111111111111111111111111111111111
1111110000000000000000000000000000000000000000000000111111111111111111
1111111111111111111111111111111111111100000000000000000000000000000000
0000000000011111111111111111111111111111111111111111111111111111111110
0000000000000000000000000000000000000001111111111111111111111111111111
1111111111111111111111111111111000000000000000000000000000000000000011
1111111111111111111111111111111111111111111111111111111111111100000000
0000000000000000000000000001111111111111111111111111111111111111111111
1111111111111111111111100000000000000000000000000000000011111111111111
1111111111111111111111111111111111111111111111111111110000000000000000
0000000000000001111111111111111111111111111111111111111111111111111111
1111111111111110000000000000000000000000000011111111111111111111111111
1111111111111111111111111111111111111111111111000000000000000000000000
0001111111111111111111111111111111111111111111111111111111111111111111
1111111000000000000000000000000011111111111111111111111111111111111111
1111111111111111111111111111111111111100000000000000000000000111111111
1111111111111111111111111111111111111111111111111111111111111111111110
0000000000000000000011111111111111111111111111111111111111111111111111
1111111111111111111111111111110000000000000000000011111111111111111111
1111111111111111111111111111111111111111111111111111111111110000000000
0000000001111111111111111111111111111111111111111111111111111111111111
1111111111111111111110000000000000000011111111111111111111111111111111
1111111111111111111111111111111111111111111111111111000000000000000011
1111111111111111111111111111111111111111111111111111111111111111111111
1111111111110000000000000001111111111111111111111111111111111111111111
1111111111111111111111111111111111111111111000000000000011111111111111
1111111111111111111111111111111111111111111111111111111111111111111111
1111000000000000111111111111111111111111111111111111111111111111111111
1111111111111111111111111111111111000000000001111111111111111111111111
1111111111111111111111111111111111111111111111111111111111111111100000
0000011111111111111111111111111111111111111111111111111111111111111111
1111111111111111111111111000000000111111111111111111111111111111111111
1111111111111111111111111111111111111111111111111111111100000000111111
1111111111111111111111111111111111111111111111111111111111111111111111
1111111111111111000000001111111111111111111111111111111111111111111111
1111111111111111111111111111111111111111111111000000011111111111111111
1111111111111111111111111111111111111111111111111111111111111111111111
1111111000000111111111111111111111111111111111111111111111111111111111
1111111111111111111111111111111111111000001111111111111111111111111111
1111111111111111111111111111111111111111111111111111111111111111111100
0011111111111111111111111111111111111111111111111111111111111111111111
1111111111111111111111111111000011111111111111111111111111111111111111
1111111111111111111111111111111111111111111111111111111111000011111111
1111111111111111111111111111111111111111111111111111111111111111111111
1111111111111111110001111111111111111111111111111111111111111111111111
1111111111111111111111111111111111111111111111111001111111111111111111
1111111111111111111111111111111111111111111111111111111111111111111111
1111111110011111111111111111111111111111111111111111111111111111111111
1111111111111111111111111111111111111110011111111111111111111111111111
1111111111111111111111111111111111111111111111111111111111111111111110
0111111111111111111111111111111111111111111111111111111111111111111111
1111111111111111111111111111101111111111111111111111111111111111111111
1111111111111111111111111111111111111111111111111111111111111111111111
1111111111111111111111111111111111111111111111111111111111111111111111
1111111111111111111111111111111111111111111111111111111111111111111111
1111111111111111111111111111111111111111111111111111111111111111111111
1111111111111111111111111111111111111111111111111111111111111111111111
1111111111111111111111111111111111111111111111111111111111111111111111
1111111111111111111111111111111111111111111111111111111111111111111111
1111111111111111111111111111111111111111111111111111111111111111111111
1111111111111111111111111111111111111111111111111111111111111111111111
1111111111111111111111111111111111111111111111111111111111111111111111
1111111111111111111111111111111111111111111111111111111111111111111111
1111111111111111111111111111111111111111111111111111111111111111111111
1111111111111111111111111111111111111111111111111111111111111111111111
1111111111111111111111111111111111111111111111111111111111111111111111
1111111111111111111111111111111111111111111111111111111111111111111111
1111111111111111111111111111111111111111111111111111111111111111111111
1111111111111111111111111111111111111111111111111111111111111111111111
1111111111111111111111111111111111111111111111111111111111111111111111
1111111111111111111111111111111111111111111111111111111111111111111111
1111111111111111111111111111110111111111111111111111111111111111111111
1111111111111111111111111111111111111111111111111111111111100111111111
1111111111111111111111111111111111111111111111111111111111111111111111
1111111111111111111001111111111111111111111111111111111111111111111111
1111111111111111111111111111111111111111111111111001111111111111111111
1111111111111111111111111111111111111111111111111111111111111111111111
1111111110011111111111111111111111111111111111111111111111111111111111
1111111111111111111111111111111111111110001111111111111111111111111111
1111111111111111111111111111111111111111111111111111111111111111111100
0011111111111111111111111111111111111111111111111111111111111111111111
1111111111111111111111111111000011111111111111111111111111111111111111
1111111111111111111111111111111111111111111111111111111111000011111111
1111111111111111111111111111111111111111111111111111111111111111111111
1111111111111111110000011111111111111111111111111111111111111111111111
1111111111111111111111111111111111111111111111100000011111111111111111
1111111111111111111111111111111111111111111111111111111111111111111111
1111111000000011111111111111111111111111111111111111111111111111111111
1111111111111111111111111111111111110000000011111111111111111111111111
1111111111111111111111111111111111111111111111111111111111111111110000
0000111111111111111111111111111111111111111111111111111111111111111111
1111111111111111111111111100000000011111111111111111111111111111111111
1111111111111111111111111111111111111111111111111111111000000000011111
1111111111111111111111111111111111111111111111111111111111111111111111
1111111111111110000000000011111111111111111111111111111111111111111111
1111111111111111111111111111111111111111111100000000000011111111111111
1111111111111111111111111111111111111111111111111111111111111111111111
1111000000000000011111111111111111111111111111111111111111111111111111
1111111111111111111111111111111110000000000000001111111111111111111111
1111111111111111111111111111111111111111111111111111111111111100000000
0000000011111111111111111111111111111111111111111111111111111111111111
1111111111111111111111000000000000000001111111111111111111111111111111
1111111111111111111111111111111111111111111111111110000000000000000000
1111111111111111111111111111111111111111111111111111111111111111111111
1111111111000000000000000000001111111111111111111111111111111111111111
1111111111111111111111111111111111111111000000000000000000000111111111
1111111111111111111111111111111111111111111111111111111111111111111110
0000000000000000000000111111111111111111111111111111111111111111111111
1111111111111111111111111111000000000000000000000000011111111111111111
1111111111111111111111111111111111111111111111111111111110000000000000
0000000000000011111111111111111111111111111111111111111111111111111111
1111111111111111000000000000000000000000000001111111111111111111111111
1111111111111111111111111111111111111111111110000000000000000000000000
0000001111111111111111111111111111111111111111111111111111111111111111
1111000000000000000000000000000000000111111111111111111111111111111111
1111111111111111111111111111111110000000000000000000000000000000000011
1111111111111111111111111111111111111111111111111111111111111100000000
0000000000000000000000000000011111111111111111111111111111111111111111
1111111111111111111110000000000000000000000000000000000000000111111111
1111111111111111111111111111111111111111111111111000000000000000000000
0000000000000000000000111111111111111111111111111111111111111111111111
1111111100000000000000000000000000000000000000000000001111111111111111
1111111111111111111111111111111111110000000000000000000000000000000000
0000000000000001111111111111111111111111111111111111111111111111100000
0000000000000000000000000000000000000000000000011111111111111111111111
1111111111111111111111100000000000000000000000000000000000000000000000
0000000001111111111111111111111111111111111111111110000000000000000000
0000000000000000000000000000000000000000001111111111111111111111111111
1111111100000000000000000000000000000000000000000000000000000000000000
0000111111111111111111111111111111110000000000000000000000000000000000
0000000000000000000000000000000000000011111111111111111111111100000000
0000000000000000000000000000000000000000000000000000000000000000000000
000111111111111110000000000000000000000000000000000000000000