P1
# CREATOR: GIMP PNM Filter Version 1.1
20 20
0000000111111000000000000111111111100000000011111111111100000001111111
1111111000001111111111111111000111111111111111111001111111111111111110
1111111111111111111111111111111111111111111111111111111111111111111111
1111111111111111111111111111111111111111111111111101111111111111111110
0111111111111111111000111111111111111100000111111111111110000000111111
11111100000000011111111110000000000001111110000000