P1
# CREATOR: GIMP PNM Filter Version 1.1
50 50
0000000001111111000000000000000000001111111100000000000001111111110000
0000000000000111111111111100000000011111111111000000000000000011111111
1111111000000011111111111100000000000000011111111111111111000001111111
1111110000000000000111111111111111111110001111111111110000000000000011
1111111111111111111001111111111000000000000000011111111111000111111110
0111111111000000000000000001111111111000001111111001111111000000000000
0000000111111110000000011111100111111100000000000000000011111111000000
0000111110011111100000000000000000001111111000000000011111100111111000
0000000000000000111111000000000001111110011111100000000000000000001111
1100000000001111111001111110000000000000000001111111000000000011111110
0111111000000000000000000111111000000000011111111001111111000000000000
0000011111100000000011111111000111111100000000000000000111111000000001
1111111100001111110000000000000000011111100000001111111110000011111111
0000000000000001111100000001111111110000001111111100000000000000011111
0000011111111111000000011111111100000000000011111100011111111111000000
0001111111111000000000001111111111111111111000000000011111111111110000
0000111111111111111111000000000000011111111111111111111111111111111111
1000000000000000111111111111111111111111111111111100000000000000000111
1111111111111111111111111111000000000000000000001111111111111111111111
1111000000000000000000000000000111111111111111111111000000000000000000
0000000000000000000000011111100000000000000000000000000000000000000000
0001111110000000000000000000000000000011111111000000011111100000000000
0000000000000001111111111111110011111100000000000000000000000001111111
1111111111111111110000000000000000000000001111111111111111111111111100
0000000000000000000000111111111111111111111111110000000000000000000000
0111111111111111111111111111000000000000000001111111111111110000011111
1111111100000000000000000111111111111100000000011111111111100000000000
0000011111111111100000000000011111111111100000000000001111111111110000
0000000001111111111111000000000000111111111111000000000000111111111111
1111000000000011111111111110000000000011111111111111111000000000111111
1111111100000000011111111111111111110000000111111111111111111000001111
1111101111111111100000111111101111111111111001111111110001111111111111
1111111110011111111111111111111110000001111111111111111111100011111111
1111111111110000000011111111111111111110000111111111111111111100000000
0111111111111111110000000011111111111111100000000000011111111111111000
00000000111111111111000000000000000001111111100000