P1
# image tests avec 3 contours - exemple 2 du cours sur les contours multiples
7 9
0011110
0111010
0100011
0111110
0011100
1000000
1110000
1110111
0111111
