P1
#
7 9
1111111
1000001
1011101
1011101
1011101
1011101
1011101
1000001
1111111