P1
# une ligne image = une ligne du fichier
7 9
1000001
0100010
0010100
0001000
1111111
0001000
0010100
0100010
1000001