P1
# CREATOR: GIMP PNM Filter Version 1.1
221 201
0000000000000000000000000000000000000000000000000000000000000000000000
0000000000000000000000000000000000000000000000000000000000000000000000
0000000000000000000000000000000000000000000000000000000000000000000000
0000000000001110111110111111101110101111111011111111111110111111111010
1110111011101111111011101110111111101110111011111011111111111110111011
1110111111101110111011101111111011111110111011111011101110111011101111
1011111111111011111010010101000101000000010101010100010100000000000101
0000000101010101010001010100010101010101000101010101010100010100010000
0000010100000101010001010101010101000000010001010101010100010101010101
0101010100010101000000010101010100101010101011101111101011101011111111
1111111010101111111011101010111010101110111010101010101010101010101011
1010101111111111101111111010101110101110111011101110101110101110111011
1010111010101110101110101010111011111010111001010101010001010000010000
0100000000000100010101000000010000010100010101010100010001010101010101
0101010101000101000000000100000100000001000001000000000001010101010100
0000000001000100010001000101000101010101000100000100010010101010111011
1011101011101011111011101110101010111110101110111011101010101110111010
1110101011101110101011111011101111101011101110111011111110111011101110
1010101011111111111010111110101111101011101010101011101011101011100101
0101000100000101010101010100010101000101010101000101010101000100010101
0100000101000001010001000001010100000101010001010100010100010001000001
0100010100000101010001000000010100000100010000010001010101010001010101
0101010010101011101110111011111011101110111010111010101011101110101010
1111101110101110111011101111111010111010101111111011101010101110101110
1110111110101011101111111010111011111011101111101011101110111010101110
1110111010101010100100010101000101010000000000010000000101000101010101
0000010100010001000001000100000001010000000101010001000100000000010101
0001010001010001000101010100000001000100000000010001000101010100010101
0101010001000100000101010101001011101011101110101110111111101110111011
1010111010111110101111101111111011101111101110111110111010111111101011
1111101110111010101110111010111110101111101110111011111110101110111010
1110111011101010101111101011101010101010010100010001000000010101010000
0101000000010100000100000101000000010100010000000101010000000001000101
0100000101000001000001010101000000010100000101010101010001010100000101
0100010000000001000000000101000001000101010100010100111110111011111111
1011101111101010111011101111101111101011111011101011111111111010101110
1111101110101011101010111011111010111011111011101111101011101010111010
1011111011101011101110111010111111101011111011101011101110101001000101
0100010001000000000001000101010100000001000001010100010100010100000100
0001010100010100010000010101010001010000010000010001010100000001010000
0001000101010001010000010100000101010100010001010001010001010000000100
0100111010101110111011111111111011101010101011101110111110101110101110
1010111011111011101011101110101110101010111010111110111111101110101110
1110101011111011101010111110111011101111101110101110101110111010101110
1011111010111001010101000100010000000100010001010101010101010001010001
0001010001010001010001010000010100000101010100010100010000000100000000
0000010001010101010100010000010100000001010101000101000001000101000000
0100010100000100010101000010101010101110111011101110101111101010101010
1011101110111010111010111010111010111110101011111010101110101110111111
1011111110111110111110101010101011101111101011111010101010111011111110
1110101111101110101011101110111011100101010101010100010101000101010000
0100010101000100000101000100010000010100010100010101010000000101000101
0001000101010100000101010101010001010101010100010100010100010101010100
0001000000010001010001000101010001000000010001001010111011101110101011
1010101111101110101011101111101011101110111011101110101010101110111111
1011101110101011101010101011101110101010111010101011101011101111101110
1010101010111011111111101110111011101010111011111110111010010000000000
0100010101010101000001000101010001000000010001000100010001000101010101
0000010100010000000101010001000101010101000001010000010101010001010100
0100000001010001010101010001000100010000010001000100010000010100010100
1011101111111011101010101011101011101110111010111110111010101110111011
1010101110111010101011101110111010111011101010111010111010111110101010
1011101011101111111110101110101010101111101111111110101011101110111110
1011101010010101010000000100010101010001010001010000010101000100010101
0001000100000101000100010101010100010101000101010001000100000001010000
0101010101010100010001000100000101010000010001010000000100000101010001
0001010001010000010100101010101111111110101010111011101110101110101110
1110111011101110111011101011101011101110101111101011101110101111101110
1111101111101011101010101011101110111011101010111110111110101111101110
1110101110111110111011101111101001000100010000000101010101000001000101
0101010100000100000000010001010101010001000100000001000000010001000001
0000010100010000010001010000000101010100010000000101000100000100010000
0101000001010001010100000000010000000100010011101111101110111010101011
1010101110101011101011101011111111101110101010101011101011111011111010
1110111010111110101110101110101110101111111010101011101111101011101110
1111101111111011101110111110101111101111101111111011100001000000010101
0001010100010101010001010000000101010100000000000001000101010001010100
0100000101000100010100010101000101010101010001010101000101010101010101
0000010001010000010000000001000000010001000001010001010001000000001011
1111101010111110101010111010111010111011111010111110111111111011101010
1110101110101111101111101110111110101011101110101110111011101011111010
1010101010101110111010111110101111111011101110111110111110101110101110
1111100101010001000100000001010100010100010000010100000100000001000001
0100010101010101000001010001000001010100000001010001010001000000010000
0100000000010100010101010101000100000100010100010001010100000000000001
0100010100010101001110111011101111111010111110101110111011101011101110
1111101110101011101011101011111110101110111110101110111010111010101110
1111101011111111101110101110101010101110111011101011101011101110101111
1111101111101110101111101010000000010001000000010100000101000100010100
0101010100010000000100010100010000010100000101000001000001000101010100
0001010100010001010000000000010101000101010101000001000101010100010100
0100010000000001010000010101000000010100111110101111101110101011111011
1011101010111010111011101111101011101111111110101111101010111010111011
1010101110111110101011101110111111101111101110101110101111111010111010
1010111011101110101110111011101110101010111110101001000101010000010101
0001000000010000010101000100000100010001010100000100000001000001010101
0100010100000101000001010001010100010000000001010100000001000000000000
0101010001010001000001000101010101010000010100010101000100010011101110
1011111010111010111111101111101010101011101111101110101011111011111011
1011101010101110101111101011101110111010111010101111111010101111111011
1111111111101010111010111010111011111011101010111110101111101110111011
1001000000010001000100010101000000010000010101010001000001010001010100
0001000100010100000101000101000001010001010001010000000101010100010101
0000010101000000000001010000010100010101010000000000010100000101000100
0000010001000011101110111011101110101011101110101111101010111011111110
1111101011111010111011101011101010101111101110101110111010101111111110
1010111010111011101011101111111110111110101110101010111011101110101011
1011101110111011101111100001010100010001000101000001010101010000010100
0100000000000000010000010100010100010101010101000000010001010100010101
0100000000010101000100010100010001010000000000010101000101000100010101
0101010100010000000001010100010000001010101110111011101011111110101110
1110111011101111111011101111111110101110101011111010101011101110101110
1011101010101110111011101011101011101010111010101111111011101110111011
1011101010101010101110101111111010101110111110010101000101000001010000
0000010000000101000101000000010101010000000001000101010100000101010100
0101010000010001010101000101010001010100010000010100010101010000010001
0000010000010000010101010101000101010001010001010000000100101110111011
1111101011111110101111101011111011101110101011101111111011101010101011
1010101110111010111111101110101010111010111010101110111011101110111010
1011111011101110101110111110101011101110111010101010111010111011111001
0000000000000000010101000101000101000000000000010101010001010000010000
0101000101010101000001000100000000010101010101000100010101000100010100
0101000101010100000100010101010000000101010000000001010101010100010100
0101010000111011111011111110101011101011101011111110111011101110101011
1011101111101011111010101111111110111011101110101010101011101010101011
1011101011111010111010101110111011101110101111111010111011111010111010
1010101110111010111001010101010001000101000001000001010001010001010100
0000010101000001000001010000000101000000000101000101010101010101000001
0101010001010101010000000001000101000100010100000001010100010100010100
0101000001010101010000010100010010101010111011101010111010111010111010
1110101111111011101110111110101110101111101010111111101011101011101010
1010111111101010111110101010111110111010111010101110101110111011101011
1011101010111011111110101110111110101011100101010100010001010101010101
0101000101000101000000010100010001010001010000010101000101000001000001
0100000101010100000000010100000000010101000101010001000101000101000101
0100010001000001000101000000010001000100000101000101001010101110111010
1010101011101110111011101110101110111010111110111010111110101010111010
1110111111101110111010101011101110111011101110101011101010101111101010
1110111011101011101110111011111010101110111110101111101110111010010101
0001010001010101010000000001010001000001010101000100000000010100000101
0001010001010100010000000101000001010101010101010101000101010001010100
0100000101010100010000010100010000010000000101010100000101000101000001
0001001010111010111010101010111111101110111011111110101010111111111111
1111101110111011111110101110111011111010111010111010101010111011111010
1110101011101011101011101111101111101110111111101110111010101110101111
1010111110111010010000010100010001010100000100010000010000000001010001
0000000000000000010000010000000001000101000100000101010100000101010100
0001010001000100010001010101010000000000010000000101000100010101000101
0001010000010100000000010100111110101011111010111011111011101111111110
1111101110101111111111111110111111111011101110101011101011111010101110
1110101010111010111011101011101110101010101110111110101011101011101110
1011111110101010111010101010111110101000010101010000010100010101010100
0000000001010100000101010000000000000100010001010101010001010001010101
0001010001010001010001010000010000010100010101010101010101010101010101
0100010001010000000001010101010101010101010001010010101110111010101110
1010101011111110111110101011111010101111111011101110111010111010111010
1010101010111110111010101110111110111111101110101110101011101011101010
1010101010111110111010101110111011101010111010111010111010100101000000
0101010101010101010000000100000001010100000001010000010101000100010100
0001010101010101010100000000000101010000000000000000010101010100010000
0100000001010001010100000001010101010001010000010100000100000100010101
0011101110111110111010101010111111101111111110101011111110111010111011
1011111011111011101110101011101011101111101010111110111011111110101110
1011101111101011111110111011101011111010101110111110101111101110111011
1011101110100100010100000000010101010100000001000000000001010000000001
0101000000010100000001000000000101010000000101000101010100000101010001
0001010100000001000001010101010000010001010100010100000000000001000100
0001010001010001000001001011101111111110101010101011111010111111111010
1111101110101011101111101111111011101111101010111011111011101010101111
1010101110101110101011111111111011101010101111111010101110101011111011
1110111010111010101110111011101010010100000000010101000101010001010100
0100000101000101010100010100010001000000010001000101000101010100000001
0100010001000101010101010001010100000000010000010101010000010101000001
0101000100010100010100010101010000010001010100101111101110101011101010
1011101011111011101011101011101111101011101110111110111011101011101110
1010111110101110111010111010101010101110101011101110101110101010111110
1010101111101010101110101110101011101010111110111011101000000001010101
0100010001010100010000000101010101010000000000010100010001000100010001
0100010000010101000101000100010101000101010101010001010001010101010100
0101000100010101000100000101000101000101010100010100000100010101010011
1110101010101110111010101110111111101010111010101111111110111011111110
1010111011101011111110101011101010111110101011101010101011111010111011
1010101010111010101110101011101011111010111110111010101110101111101011
1010101001000001010101000100010001000000000101010100000001010000000100
0001000000010100000100000100000001010001010101000101010100010101010000
0101000100000101010101000101000100010001010001000101010001000101000101
0100000101000101010011111110101010111011111110111111101010101011111110
1110111010111011101110101111101011101110111110111010111010111010101110
1010101110111011101111101010101110111011101011101110111011101110111011
1110101110101110111011111010100000000001010001000100000000010001010101
0100000000000001010101010001010101000001010101000101010000000100010101
0001010001010101000100000000000001010101000001000001010100010000010001
0000010000000101010001000101000000000101001111111010111011101011111110
1011101010101111101110111110101010111011101011101110101011111010101111
1110111010111110101110101011101110111011111110101010111110111010111011
1011101110101110101110111010111010111011101011101010010000010100010001
0001000001000100010101000001010101010001010000010000010100010001010100
0001010100010000000101000001010001010100000101010100000001000101000001
0101000001000101000101010101010100000101010101000101010101010100101111
1010111110111110111011111011101010111110101010111010111110101110101110
1110111011111010101011111110111010101110111010101011101010101111111011
1010111111101110111110101011101010101110101111101010101110111010101010
1010000100000101000000010001010001000101010100010000010100000100010101
0101010001000100000000010101010100000101000101010000010101010101010101
0001000100010100010000000000010001010001010101000000000001010001000001
0001010101010100111011101011111110101110111011111010101110101111101011
1110111010101010111111101011101110101010101011101110101110101111101010
1110101010111111101110111010111011111011101111101110101011111111101110
1110111010101110101011101001000001010000010100010000010100010001000101
0101000001010101000001010100000001010001010101010101010101000001000101
0100000101000001010100000001000100000100010101010100000100010001010100
0001010100000100010101010001010100010011111010101110101110111110101110
1110101110111011111010101011101110101110111010111011101110101010101011
1110111010101111101010111011101010111010101011111010101010111011101110
1110101011111010111011101110101010111110101110100100010101010101000100
0001010001000101010000000100010001010001010001000101010100010000000101
0101010100000101000101000001010101010001010101010101010100010101010000
0001010001000101010000010100010001010101010100010101000101001011111010
1011111011111010111010111010111110111110111110111010101111101010101110
1110111010101010101110111011101010101110101010111011101010111010101110
1110101011111010111010111010101111101110111011101010101110101011101010
0101010000010000000100010100010101000100000100000001010000000101010000
0101000001000100010001010101010101000001010101010101010100010000010100
0001010001000001010100010101010101000101010100000100010000010101010001
0100010001001010101110111011101110101110101011101111111011111010101110
1110111011101011111011101110111110101010101011111011101011101010111011
1011111011101110111011111010111011101010101011101010101011101110101110
1010101110101110111010010101010100010101000101000101010001000001000100
0101010101010000000101010000010000000100000001010100010001010100010000
0101000101000100010001010000010000010100000100010101000001010101000100
0001000101010101000101000100010100101011101111101011111011101010111011
1110111110111010111011101111101010111110101111111111111010101110111010
1011101011111011101011111010101010111011111110111011111011101011111110
1010111010111011101011101011101011101110101001010000010000010000000001
0101010000000100000000000101000000010101010100000101010100000000010001
0001000001010000010100000001010100000101010100010101000100000101000100
0000010000010100010101000001010000010101010000000101010010111110101110
1011111110101010111111101110111011111010111111101011101111101011101111
1110111011101110111110101110101011101110101011101110101110111011101011
1110111110111011111111101011101011101110101111101011101111101010100100
0001010101000100000101010100010000000001010100000001000000010000000001
0100000000010001000100000101010000010101010101010001010101010001010001
0000000101000000000000010001000100010100010101010101010100010000010001
0101010011111010101011101110111010101110111111111110101110111010111011
1011111110101111111011101110111011111010111011101010101011111010101010
1011101110101111111011111011101110101110111011101111101011101010101110
1111111011101010100101010101010001010101000101000100000000010001000101
0101010101000100010101000000010000010001010100000101010100010101010000
0101010100010101000100010001000000010101010101010000010100000000010100
0101010001000000000000010101001010101011101110101011111011101011111011
1011101110101010101010111110101011101110101110101110101011101010101011
1010101011111010111011101011101110111011111110111011101010101110101111
1011101011101110111011111110111111101010010001010000010101010000000000
0101000101000100000001010101010001000001010001010101010101010001010001
0101000101000001010000000100000100010101000100000000010100000000010101
0101010001010101000001000000010001000001010000010100111010111110101010
1111111011101110111011101110111110101010111011111010111010101010101010
1010101110101011101011111110111011101110111011101011101011111111101111
1110111010111010111010101011111011111110111010111110101110101000010000
0001010101000000010101000001010001000101000001010100010000010000010101
0101000101010101000101010001010000000000010101000001010100000001010100
0000000000000101000100000100000100010000010000000101010101010001010101
0100111011101110101011111010101011101110101110101110111010101110111110
1011111010101110111010111010111010111010101011101110101010111110101011
1110101010111111111110101011111010111011111011101111101111111010101010
1011111010101001000101000001010000010101010001000101000101000101010101
0000000001010100000101000001000100010101010101010101010101010101010100
0100010100010100010101010101000101010001000101000001000100010100010100
0000010101010000000101010010111011111110111011111010101011101011111011
1110101110101111101110101110111010111110111110101010111010101110111010
1011101011111110101110101110101010101011101110111011101011111010101110
1011111010111111101010101111101010100100000000000000010000000101010001
0100000000000001000001010101010001000101000101000101000001010100000001
0000000001010000010000000101000101000101000101010001000000010001010001
0101010101010000000101000100010101010001000101001011111111111110111111
1010111110101011111111111010111110101011101110101011101011101110111110
1010111110101110111010101011101111101011111011101011111010111010111010
1110101111101110111010111011111010111110101010111011111010010100000000
0100000000010000000001010100000000010101000001010000010001010001010001
0000000000010101000101000101010101010100010101000000000001010000000100
0001010101000101000000010000000100000100000100000101010100010001000100
1010111111101011111011111011111010101011111011101010111110111111101110
1111101010111111101110101111101011111010101010101011101011111110111110
1111111010111010101110111010111011101111101011101111101111101010101110
1110111010010001000101010100010100010001010101010100010100010001000000
0100000101000000010100010001010100000000010001000001010101010100010001
0000010000000000010101010101000001000101010100010101000101000101000001
0101010001010100000100111111101010101011101011101110101010101011111010
1110111110111011101011101111101011101110101011111110111011101110101110
1110111110111011101110111110101010111010111011101010101110101011111011
1010111110101010111010101011111000000000010101000100000100010001010001
0101000001000101000101000101000001000100010100010001010100000100010101
0100010001000000000000010100010101000101010100010101010001010001000101
0000000000010001000101000100010101000101000011111110101011101111101110
1011101111101011111011101011101011101011111011101011111011101110101110
1011111010101110101010111110111110101011101011101110101110101010111110
1110101110111011111110101110111011101011101011101010100101000101010001
0000010001000100000000010000010101010100010001010001010001010100000101
0100010101010000000101010101010101000101000001010100010001000100000001
0101000000000101010000010101000001010000010001010100010001010101001010
1110101011111110111111111011111110101011101010101110111011111010111110
1010111010101011101011111111101011101110101010101010111010101110111011
1011101110101011101110111110101111101010111110101110101110101010111010
1011100101010101010100000100000001000100000101010101010001000100000000
0001000000010101010001010100000000010001000000000001010101010101010001
0001000100000001010101010001010100010001010001010101010000010100010000
0101000101000001001010101010101011101111101110111011101010111011101111
1011101111111011101111101010111011101110111110101011101111111110111011
1010101011101010101011111010101010111110101111101110111010101010101111
1011101111101111101011101110010101000101000101000101010100000101010100
0000000100000001010000010001010000010100010000000101000001010001010100
0000000101000101010100010101010101010101010100000001000000000100010101
0101010100000001000001000000010001010000101011101011101011101010101110
1110111010111011101111111010101110101011101111101110101111101011111110
1110101011101111101011101010111011101010111010101010111011111110111111
1011101011101010111011101110111011101110111010111001010001000001000001
0100010001010000000101010101010001010101010101010000010000000001010001
0100000100000101010001010101000001010100000101010100000001010100000101
0000010100010001010000000100000101000101010001010100000100010010111011
1110111110101110101110101111101010101010101110101010101110111110101111
1111101011101111111011101110101010101011111011101011111010101111101110
1010111010111110101110111010111111101110111011111110111010101110111010
1001010100000100000101000100010101010001010101010101000001010100000001
0101000100000100010100000000000101000001010001010001000000010101000101
0101010100010101010000000101000100010100000001000001000000000000010100
0001010001010010101111101111111010111110101110101011101010101010111011
1011111011101011101011101111101011111110111010111110111010111011111110
1110101110111010101110111010101110101011101010101110111010111110111111
1011101011101110111010100101000101000001000100000101000001010000000100
0101010100000001010100000001010101010100010000000101000101010001010100
0100010000000101010000000101010101010101010101010001010101000101010101
0100000001000101010001010001010101001010101011111011101111111110111110
1110111010111011101011111010101111101111101010101110111011101010111010
1010101010101110111111111010111011101010101010111010101010111010101111
1011101010101111111011101010111010111010111010010101010100010000000000
0000010000000101010101000000010100010101010001010100010100000100010101
0101010000010101010101000100000000000100000101000101010000010100010100
0001010100000000000101000000010001010000010100010100010100101011101110
1111101110111110111111101010101011111011101011111011101110101111101011
1110101110111010101111101110101011101011101111111011101011101010111011
1011101011111110101011101111111010111111101110111110111110111010101001
0100000000010001010101000100010001010101010100010100010000000000010101
0000010101000001010000000001000100000001010101010001010000000101010001
0100000101000001010000010001000101010001000101000100000100010100000100
0001010100101110111111101110101110101110101110101011101110111011101110
1110111010101110101011101110111111111010111011111011101010111110101111
1010111011101110111010111010111110111011101010101110111011101011111110
1011101110111011101001000101000000010101010001010101010101010100000100
0101000101000101000101010001010101010100000100010101000001010000010100
0100010100010101000001000101000001010100000100010001010100010001000001
0101000000010101010001010000010010111010111110101110111110101010101110
1011111011101110111011101010101010101110101010101011101011101011111010
1011111011101110101010101011101110111010111010111011101010101110101111
1011101110101110111111101010111010111110100101000101000101000000010100
0101010000010100010100000000010001010101010101010001010101010101010101
0100000101010101000001000001010101010001010000010101010100000101010101
0101010000000001010101000001000000000100010100000101001010111011101110
1110111010111010101110101011101111111110101110101110101011101110101010
1110101010101011101110111011111010111110101110101110101110101010101011
1110111010101010101011101110101011111010111110111011101011101010010101
0000010000010100000101000101000101000100000100000100010001000101010000
0100000101010001010101010100010000000000010101010001010001010001010100
0101010100010000000101000101010101010001010000010101000001000100000101
0101001010111011101110101111111011111011101010111011101111101110111011
1110101011101011101010101110101011101110101011111010101010111010111110
1110111011101010101110111011101110111011101011111010111011101011111110
1110111010101010010101000100010100000000000000000001010101000101000101
0101000100000001010101010101010101010000010000000101010101010101010100
0101000000000100000101010101000100010100010001000001010000000100010100
0100000000010000010101010100101011101011101111101110111111101111101011
1110111010101011111011111010101010111010111010111110111011101010111010
1110101010101011101111101011101011101011101110101111101111101010111011
1011101111101111101110101110101010101001010001010100000100010100010001
0100000100000000010100010100000100010101000100000100000100000100010101
0101000001000001010101010100010001010101010100010001010001000000000101
0101000101010001000001010001010101010101010101010010101110101011101110
1011101110101111101011101110101110101011101110111011101110111111101011
1111101010101010111011111110101110101111101110111010101111101110101110
1110111010111011101010111110111010101110101010101110101010100101000101
0101000001000001000101000101010101010101000101010001000100000001010001
0000010101000001010001010101010000000001000101000000010000000001000000
0100010100010101010100010000010100000101010100010001010101000101010101
0010111010111011111011111010111010111011101011101011101010111011101110
1111101110111110101010111010111110101010101111111011101011111110101110
1111101110111011101111101010101010101111101011101110101111101110111011
1010101010100100010100000001010000010101000101000000010001010100010000
0100010001010001000100000001000101010100010001010001010000010001010000
0001010001010000010101010100010100010001010101010100010101000001000000
0100000100010101010101001010101111111010111011101010111010111111101110
1011101011101110111010101011101011111010111010101110101110111110101110
1110101110111010111010111110101010101110101110111110101110101011101011
1110101111101011101111101010101010010101000001010100010100010101000001
0000010000010001010100010100010001010001010100010001000101000101010100
0100000101010100000101010100010100010101000101000100000000000101000001
0101000000000101010001010101000000010001010100101011101110101011111110
1010111111101110101110101110101011101011101110101110101110111010101011
1110111011101011101011101111101010111011101011101011101011101111111110
1110111111101010111011111010111011101011101110111010101001010100010001
0100000000010000000100010101010101000101010100010100010001010001000100
0101010100000000000001010101000000000001010100000101010000010001010001
0000000101010000000000010101010101000100010000010001010100010101010010
1011101011101110111110111011101011101010101011101010101110111011101110
1111101011101110101110111111101110111011101111111010101011111010111111
1011101110101111101010101110111011101010101010101110101111101011101110
1010101001010001000100000101000100010101000100010100010001010101000100
0001010101000000010001000001000101000001010000000001010000010100010100
0001000000000101010101010101010001010101010101010101010101010101010000
0100000001010101010010111011101111101110101110101010111011101110111010
1110101110111010101010111110111011111111101011101110111110111110101110
1010111010111011101111101010101011101011101110101110101010101011101110
1010101111111011111110101011100101010001000001000001010101010001000100
0001000101000001010001010001010101000100010101000001010101010100000101
0101000101010101000101010001010001010101010000010000010000000001010101
0101000001000101000000000100000001010000001010101111111011111110101110
1111101110111011101111101110111010111011101110101110101011101010101010
1011111010101011101010101010111010111011101110101010101111101111111110
1110101010111011111010111010111011111011111010111110010101010000010000
0001010000000000010001010101000001010001010100010000000001000101010001
0101010101010000000101010001000101010101000101010001010001010101000000
0001010001010101010100000000010001000101000101000101010101000100101011
1011101110111010101111111011101110101010111010101010111011101111111111
1011101110101110101010111111111010101110111010101011101010111010101110
1010111110111010101011101010101011101110111010111010111011111010101010
1010010100000001000100010101010000010100000101010001010101010100010101
0100000000000100000001000001010100000000000101010101000101000000010000
0101010100010000000101010101010000010101010100010100010101000101000000
0000010101010100101011111010101110101011101110111011101010111110101010
1110111010101011101011111011111110111010101010111111101010101111111011
1110111011111010101110111111101010101011111011101010101110101011101011
1110111111111110111010101001000100010101000101010000010001000101010100
0000010101000001000101010001010101000000010001010100010101000001010101
0000000000000101000100000101000100010000010101000000010100010101000101
0101010000000000010000010100000101010011111011101010111010111110101110
1110111010111110101011101111101010111010101010111110111010101110111010
1110101010111110111110111011101111101010111110101111101011111111101011
1010111010101110111110111110101110101111111011100000000100010101000100
0001010100010000000101000101010001010001010100010101010101010100010101
0001000101010101010100000101000101000001000001010100000101010100010000
0000000101000100010101000000010101000101010101010000000000001111101110
1010111110111011101110101110101010111010101111111010101110101010101010
1010111010101111101010101110101111101110111010111110111110101111101010
1011101110101111101010101110101011101111101011101010101110101111101110
0101010001010100010001010101010101010101010101000101010000000101000101
0101010101010101000101000001010101000001000001000001000101000001000001
0000010100010001000101010001010101000001010101010000000000010101000001
0001010101001010111010101011101110101010101011101011101011101010111011
1010111011101010101010101110111010111010101011111011101110111011101010
1110101110111110101110111010111110101110101011111110111010101011111111
1010111110111010111010010100010101010100010001000101010000010100000001
0100000101010100010000010101010100000001000101010101010001000001010001
0101010101010101010100000001000100000100000001010001010000010001000101
0101000001000101000000010100000100101110101010111011101110111010111011
1010111110101110111010101110111110101010101111111011101110111010111011
1110101110101010101010101110101111101110111111101011111010111110101111
1010101110111011111010111010111110111011101001000101010100000100010001
0001000100010101010101000101000101000000000101010101000000010001000000
0001010100010001000101010001010101000001000101010000000001010100010100
0000010100000101000000010001000101000001010100000101010010111011101111
1111101011101110111111101110101011101010101011111110111010101011111110
1011101111101110101010111110111010111011101011111010111011101111111011
1010111010111110101011101011101110111011101111111010101011101011100101
0000000001000000010100010000000000000001010001010101010000000101010101
0100000000010101010001010000010100000000010100010000010000010100000000
0101000100000101000101000101010101010001010000000001000000010101010001
0100000010111011111010101111101110101110111110111010111010101110111011
1011101110101110111111101010101110101110111011111110101011101110111011
1010111011111011101111111011101010111010111010111110111011111010111110
1010101110111011100100010100010101010000000101000101010101010100010101
0001000101010000000001000101010100000101010001000100010101000101010101
0001000001000101010000000000000000000001010101000100000100000000010101
0101010101010100000100000101001010101110111010101111101011101010101010
1110101110111011101010111110111111111010101011111010111011111010101011
1010111010101110111010111010111111111111111110111010101010111011111011
1111111010101111101010101011101111111010010101000100000101010100010001
0101000101000001000001010100010100000100000000010101010101000101010001
0101010100010100000001010001010101000000000000000000010001010101000101
0001000001000000010101000100010001010101000000000100101011101111101110
1011111011101011101011111110111110101011101011101111101110101010101011
1010101011101110101110101111111011111110111011101110111111111110101110
1110111010101110111011111110101011101110111011101011111011101001010001
0000010000010000000101010001010000000101000000010100010101000001010100
0100010100010101010100000001010101000000010000000001000101010101000000
0001010100000000010101010101010000000101010100010000010000010001010101
0100101110101110101111101110111011101110101111111110111110101110101010
1110101011101110101011101010101110111010101011111110111011111011101010
1010101111111010101111111011101011101110111111101011101110111011101011
1011101110101001010001010101010000010101000000000101000001010000010101
0101010001000101010001000101010000010100000101010101000001010101010101
0001010001010100010000010101010000010101010000000100000001010000000100
0101000101000101000000010010111010101110101111101010111111101011111010
1011101011101010111110111010111011111010101110101111101110101011101010
1010101010111010111010101111111110111010111011101010111111101011111010
1110111111101011101010111010111011100100010101000000010000010101000001
0101010101010101010000000100010001010100010000010101010101000101000001
0100010101000101000100010100010101000100000101000100010001010000000001
0001000100000101000001010001010101000101010100001011111011111110111110
1011101110111010101010111010111111101110101110101110101011101011101010
1010111010101111101011101011111011101010111011101111101011101110111010
1011111110111010101110111010111010111010101011101010111010010100000100
0001000101010000010000000001010100000100000001000101010100000101010100
0100000101010100010101000000010001010000000101010100000101000001000001
0001000101010100000100010101000101000001010101000101010000010100000100
1011111111101111101010101110111111111010101110111011111011101011101111
1010111011101111101010111011101110111011101110111111101010111111101011
1110111110111011101011101110111011101011101011101110101010111010111110
1011111110010100010001010101010101010100010000010001000100010100000101
0100000000010100000001010001010100000100000001010101010100000101010100
0000010100010100000100000001010000000101000100010101010000010001010001
0001000001010000000100101110111010101011101011101110101110111011101110
1011111010101111101110101011111010101110101011111011111110101010101110
1110101011111110101110101110101011111010111011101010111011101011101110
1110101011101110111110111011101001000001010101010000010000000101000100
0100010001000000010101000001000101010101000101010101010100000001000001
0001000000010001010000000101000101000101010001010100010101000101000100
0100000101000001010100010001010000000101010010111010101010111110111111
1011101110101010101010111111101010111011111010111010111010101010101111
1111101110111010111111101010111111101011101010111010111110111011101010
1110111011101110111010111110101110101110111111101011100101010100010100
0001000000010000010001010101010101000100010101010001000100000101000001
0101010000000000010100010101000100010101000100010001010101000100000000
0001000101010001010001000101000101010000000101010000010001010100001010
1011101010111110111111111111111010111011101010111011101110111010101111
1010111011101010111011111110101111101110111011101011101110111010101011
1011101110111110111011111110101111101010111010101111101011101111101111
1011100101010001000101000000000000000000010100010001010001000100000000
0001010000010100000100010100010100010101000001000001000100010101000100
0101010100010001010101000101000100000000010001010101000101010100010000
0100000100000101001010111010111010111111111011111110111010101110111010
1110111110111010111110101110111011101110101110101110111110111011111011
1010111011101011101110111010101011101110111011101011101110101011111010
1011101111101110111011101010010000010001000101000000010100000100010101
0100000101000101000101010100000101000101000001000101000100000000000101
0100000001000000000001010000000000010101010001000000000101010100000100
0100000001010001000001000101000101010100111110111011101010111110111011
1111101110101110111011111011101110101111111011101111101110111010101111
1011111011101111101110111011111010111011101110111010111011111011101010
1010111110111011101110101111111010101010111011101000000100010001010101
0001000001010001000001000001000001000001000001000100000001000000010001
0001010001010100010000010000010100010101010100010101010101000100010000
0101010001010101000001000101010001010100010101010101000100010011101110
1011101010101110111010101110111110111110111011101011101011111011111011
1011111010111011111010111011101110101111101111101010101011101011101011
1010101111101010111010101011111110111011101110101011101010101011101110
1001010001010100010101010001010100010001010001010000010001010001010000
0101010000010100000100010000010000000100010101010100000100000101010100
0100000000010101000001010100010101010000000001000000010000010100010101
0101010000010010111010111011101010111110101011111010101110101110111011
1110111011101010111110101111101011101110111111101110101010101110111011
1010101011111011111110111010111010101010111011101111111110111111101110
1011111011101010101110100101010100000100010100000001010100000101010001
0101000100000100000101010000000101000001010100010000010001000101000100
0001010001010100010000000101010100000101010101010101000000000000010001
0000000101010100000000010001010101001010101110111011101011111010101011
1010101010111011101011101011101010111011111011111011101011101110111010
1010111011101010111010101011101111111010101011111010111010101110111111
1011101110101111111010101011111110101110101010010001000101000100010100
0101010101010101010100000001010101010101010100010101000000010001010100
0101000101010100010001010100010101010100000100000101010101010101000101
0100010000010101000101010000000001010101000101010000010100111011101011
1011101011101110101010101010111110111011101011101010101011101010111111
1110101110111011101011101110111110101110111011101111101011111010111010
1110101110101011101111101011111010111010111110101010111010101111101000
0100010100010001010001000001010101010100000101010000010000010101010101
0101000100000101000001010001010101000100000001000100000100010001010001
0101000001000000010001010000010000010000000101010101010001010101000001
0101000000111110111010111010111011101110111010101111101010111010111011
1010101010101011111011111010101110111011101011101111111011101111101010
1110101110101011101011111110101110101110101111101111111010101010111010
1010111110111011111001000100000100010100010100010001000101010001010100
0101000101000101010001010000000100000101010000000000010101000100010101
0000010101000101000101010001010000000101010101010101010000010001000101
0101000100010100000100000000010010101011111110101110101110111010101010
1110101011101011111010111010111010101111111011111010111011111110101011
1011101110101110101111101010111010111010101110111010101011101010111110
1011111010101011101110101011101111111110100101010100000101000101000101
0101010101000100010000010000000101000100010001010000000101000100010101
0001000100000001000001010101000000010101000000000101010101000101010000
0101000001010100000101010001000100010001000000000101001011101011111010
1110111010101011101010101011101110111111101010111010111010111110111010
1110111010101011101110111011111010101011101111101010111011101110101011
1110101011101010111010101011101011101111101110111011111111101010010100
0101000001010000000101010000010101010100010100000001010100000100010100
0101010000010001000101010001000101010000010100010101010000010101010101
0000010100000001010100010101010100010101010001010000000100010000010000
0101001011111011111010101011101010101110101110101110101110111110101111
1011101110101010111110101110111010111011101010111111101111101010101110
1011101110111011101011111110111011101010111011101010101110111111101110
1111101011111010010000000100010101010101010101010100000101000101010101
0001010001010100000001010100000101010001000101010001010100000101000000
0001010101010000000001010100010100000100000100010100000100000101010000
0001010001000001010100000100111011101110101010101011101010101111101011
1010101010101110101010101111111011101110101110101011101110111011101011
1010101111111010111010111011101010101110101011101011111011101011111011
1010101111111010111011101110111011111000010101000101010101010000010101
0001010100010101010101000001010101000100010101000101000001010001000000
0100000001010101010000010000010101000101010101000101010101010100010100
0101000001010101000000000100010001010000000100000010111010111010101010
1111111010101110101011101010101011111010111010111010101011101110111110
1110111011101110111010111010111110111110101011101010101011101010101010
1010111011101011111110111010111011111011101110111111101011100100000101
0001010101000100000001010000010100010100010001010101000101000101010001
0000010001010100010101000101010100000100010000010101010001010101010001
0101010101010100010001010101010001000101010100000000010100000001010100
0011111010111010101111101111111010111111101110101110111110111011101010
1110101110101110111011101010111010101010101111101110101110101010111011
1010101011101010101010101110111110101010111011111010111011101110101011
1110101011100100010100010101000001000000010000000000000001000100000000
0000000101000101010101010100010000010100000101010101000001000101010101
0100000000000101010101000101000100000100000001010100000000000100000101
0101000101000101010001001010101110101011101011101110101111111111111010
1111101110111011111011101010101010101110111110101110101010101011111011
1010101010101111111111101110101011111011101111111110111110101011111011
1010111010111011111010111010111110010101000100010001010101010101010000
0000000101010101010101010101000001010101000101000100000101010101010101
0100000100010001010100000000010001000001010001000001000000010101010001
0101010001010101010100000000000001000101000100101011101110101010101010
1011101011111011101110101011101110101011111110101011101011101011101010
1011101110101111101110111010101011111110111011111110111011111110111011
1011101011101010111010111010101011101111101110111010111001010001000101
0101010100010000010100010101000001010000000000010100000101010001010000
0101010101010001000001000001000100010001010100010100010000010000000000
0000010101000100010100000100010000000101010101010101010001000101010010
1111101110111011101110101111101110101011111110101111101111101011111011
1011101011101110111011101110111011111011101110111110111011101111101110
1110111011101110101010101011101011101010111111111010111010101011111110
1110101001000000010100000000000101000000000101000000000001010001010100
0100000000000000000101000000000000000001010000010001000100000000000000
0000000101000001010101010101010101010100010101010101010000000000000101
0000000000000001010011111111101111111111111011111111111011111111111110
1110111011101111111111111111111011111111111111111110111111111011101111
1111111111111111111011111110111011101110111011101111101011101110111111
1111111110111111111111111110100000000000000000000000000000000000000000
0000000000000000000000000000000000000000000000000000000000000000000000
0000000000000000000000000000000000000000000000000000000000000000000000
00000000000000000000000000000000000000000