P1
# une ligne image = une ligne du fichier
7 9
0000000
1111111
0000000
0000000
0000000
0000000
0000000
0000000
0000000