P1
# image tests avec 2 contours
4 3
0 1 1 0
1 0 1 1
1 1 0 0
